<?xml version="1.0" encoding="UTF-8"?>
<svg width="375px" height="100px" viewBox="0 0 375 100" version="1.1" xmlns="http://www.w3.org/2000/svg" xmlns:xlink="http://www.w3.org/1999/xlink">
    <!-- Generator: Sketch 46.2 (44496) - http://www.bohemiancoding.com/sketch -->
    <title>bg</title>
    <desc>Created with Sketch.</desc>
    <defs>
        <linearGradient x1="0%" y1="6.015625%" x2="86.7765661%" y2="61.6310391%" id="linearGradient-1">
            <stop stop-color="#DBBF82" offset="0%"></stop>
            <stop stop-color="#B7945C" offset="100%"></stop>
        </linearGradient>
        <rect id="path-2" x="0" y="0" width="375" height="100"></rect>
        <linearGradient x1="100%" y1="50%" x2="3.061617e-15%" y2="50%" id="linearGradient-4">
            <stop stop-color="#FFFFFF" stop-opacity="0" offset="0%"></stop>
            <stop stop-color="#FFFFFF" offset="100%"></stop>
        </linearGradient>
    </defs>
    <g id="Page-2" stroke="none" stroke-width="1" fill="none" fill-rule="evenodd">
        <g id="bg">
            <g id="餐饮-3">
                <mask id="mask-3" fill="white">
                    <use xlink:href="#path-2"></use>
                </mask>
                <use id="Mask" fill="url(#linearGradient-1)" xlink:href="#path-2"></use>
                <g id="餐饮-5" opacity="0.125668025" mask="url(#mask-3)" fill-rule="nonzero" fill="#FFFFFF">
                    <g transform="translate(242.000000, 43.000000)" id="Shape">
                        <path d="M64,17.3209189 C64,16.3610775 63.2174079,15.5823589 62.2509344,15.5823589 L55.1476028,15.5823589 C54.1812754,13.9897859 53.092458,12.4377931 51.8879473,10.9614435 C46.112859,3.89352079 39.0190283,0 31.914235,0 C24.8095148,0 17.7142955,3.89352079 11.9406688,10.9614435 C10.736085,12.4377931 9.64726757,13.9897133 8.68094029,15.5823589 L1.7490656,15.5823589 C0.781276568,15.5823589 0,16.3610776 0,17.3209189 C0,30.3751824 1.41280239,43.1886509 14.790684,48.6964503 L14.5606861,55.1992266 C14.5443151,55.6723961 14.7213265,56.1293044 15.0506467,56.4673759 C15.3813554,56.8079882 15.836016,57 16.3109941,57 L46.6571946,57 C47.1308572,57 47.5855178,56.8079882 47.9162265,56.4673759 C48.2456198,56.1293044 48.4225581,55.6723961 48.4049447,55.1992266 L48.1900022,49.0885318 C62.5109702,43.821455 64,30.6969202 64,17.3209189 Z M31.914235,3.47712005 C39.398777,3.47712005 46.352504,8.97678889 50.9391603,15.5822862 L12.8893096,15.5822862 C17.4761121,8.97678897 24.4283775,3.47712005 31.914235,3.47712005 Z M44.8457876,53.5228073 L18.1226203,53.5228073 L18.2505918,49.8807531 C22.0139478,50.9298128 26.5422093,51.5111477 32.0000365,51.5111477 C36.9774042,51.5111477 41.1695488,51.0218623 44.7273902,50.1402776 L44.8457876,53.5228073 Z M32.0000365,48.0341002 C8.74627805,48.0341002 3.78381965,37.8675638 3.51026323,19.0567929 L60.4884943,19.0567929 C60.2162534,37.8675638 55.2524794,48.0341002 32.0000365,48.0341002 Z M35.3821821,9.97452451 L38.5834429,11.5644115 C38.8149025,11.6779489 39.0571055,11.7320316 39.2993817,11.7320316 C39.8859604,11.7320316 40.4508328,11.4102939 40.7312592,10.8533507 C41.1274519,10.066574 40.8060981,9.11203205 40.0153204,8.71995041 L36.8140597,7.13013601 C36.0233551,6.7353684 35.0611206,7.05442021 34.6663895,7.84119681 C34.2715854,8.62528751 34.5914776,9.58244287 35.3821821,9.97452451 Z M24.6760618,11.218282 C24.9850644,11.218282 25.2967711,11.1317497 25.5730317,10.945255 L28.1005235,9.24451652 C28.8327602,8.75239999 29.0232923,7.76279498 28.5265349,7.03540046 C28.0297775,6.30800594 27.0361895,6.11606668 26.3038797,6.61094182 L23.7763879,8.31429367 C23.0455398,8.80648278 22.8522305,9.79332917 23.3503765,10.5207238 C23.6593791,10.9749461 24.1630065,11.218282 24.6760618,11.218282 Z"></path>
                    </g>
                </g>
                <polygon id="Path-3" fill-opacity="0.1" fill="url(#linearGradient-4)" mask="url(#mask-3)" points="27.9882812 98.5390625 94.6953125 -0.61328125 212.324219 -0.61328125 138.035156 98.5390625"></polygon>
                <polygon id="Path-3" fill-opacity="0.2" fill="url(#linearGradient-4)" opacity="0.800384964" mask="url(#mask-3)" points="150 99.1523437 216.707031 0 334.335938 0 260.046875 99.1523437"></polygon>
            </g>
            <rect id="Rectangle-4" fill="#FFFFFF" opacity="0.227751359" x="302" y="37" width="20" height="4" rx="2"></rect>
            <rect id="Rectangle-4" fill="#FFFFFF" opacity="0.227751359" x="294" y="47" width="20" height="4" rx="2"></rect>
            <rect id="Rectangle-4" fill="#FFFFFF" opacity="0.108355978" x="76" y="8" width="20" height="4" rx="2"></rect>
            <rect id="Rectangle-4" fill="#FFFFFF" opacity="0.108355978" x="68" y="18" width="20" height="4" rx="2"></rect>
            <rect id="Rectangle-4" fill="#FFFFFF" opacity="0.111243207" x="-6" y="78" width="20" height="4" rx="2"></rect>
            <rect id="Rectangle-4" fill="#FFFFFF" opacity="0.111243207" x="-14" y="88" width="20" height="4" rx="2"></rect>
            <rect id="Rectangle-4" fill="#FFFFFF" opacity="0.227751359" x="368" y="10" width="20" height="4" rx="2"></rect>
            <rect id="Rectangle-4" fill="#FFFFFF" opacity="0.227751359" x="360" y="20" width="20" height="4" rx="2"></rect>
        </g>
    </g>
</svg>