<?xml version="1.0" encoding="UTF-8"?>
<svg width="60px" height="77px" viewBox="0 0 60 77" version="1.1" xmlns="http://www.w3.org/2000/svg" xmlns:xlink="http://www.w3.org/1999/xlink">
    <!-- Generator: Sketch 46.2 (44496) - http://www.bohemiancoding.com/sketch -->
    <title>head2</title>
    <desc>Created with Sketch.</desc>
    <defs>
        <circle id="path-1" cx="30" cy="30" r="30"></circle>
        <circle id="path-3" cx="30" cy="30" r="25"></circle>
    </defs>
    <g id="Page-2" stroke="none" stroke-width="1" fill="none" fill-rule="evenodd">
        <g id="head2">
            <g id="Group" transform="translate(18.000000, 0.000000)" fill="#FFFFFF" opacity="0.3">
                <ellipse id="Oval" cx="12.9807692" cy="1.86444653" rx="1" ry="1"></ellipse>
                <ellipse id="Oval" cx="0.748890533" cy="3.3630394" rx="1" ry="1"></ellipse>
                <ellipse id="Oval" cx="25.2126479" cy="3.86257036" rx="1" ry="1"></ellipse>
                <polygon id="Path-15" points="22.8343354 18.9304534 1.36028944 5.50068066 2.98581095 18.9294777"></polygon>
                <polygon id="Triangle" points="12.9807692 4.11233583 22.9754837 18.8484991 2.99556213 18.8484991"></polygon>
                <path d="M20.5359349,0.0449601337 C20.5359349,0.0449601337 20.4706625,1.28508779 21.0581134,1.88557066 C21.6455643,2.47299955 22.8987928,2.40772967 22.8987928,2.40772967 C22.8987928,2.40772967 21.6716732,2.36856775 21.0842223,2.95599664 C20.4967715,3.54342553 20.5359349,4.77049921 20.5359349,4.77049921 C20.5359349,4.77049921 20.5750983,3.5042636 19.9745929,2.89072676 C19.4001965,2.31635184 18.1730769,2.40772967 18.1730769,2.40772967 C18.1730769,2.40772967 19.3088153,2.42078365 19.8962661,1.84640873 C20.4967715,1.23287189 20.5359349,0.0449601337 20.5359349,0.0449601337 L20.5359349,0.0449601337 Z M28.157215,4.66034475 C28.157215,4.66034475 28.1180517,5.50885315 28.5096856,5.91352638 C28.9143739,6.31819962 29.7629141,6.26598372 29.7629141,6.26598372 C29.7629141,6.26598372 28.9274284,6.23987577 28.52274,6.644549 C28.1180517,7.04922224 28.1441606,7.88467666 28.1441606,7.88467666 C28.1441606,7.88467666 28.1702695,7.02311429 27.7655811,6.60538708 C27.3739472,6.21376782 26.5384615,6.27903769 26.5384615,6.27903769 C26.5384615,6.27903769 27.3217294,6.29209167 27.7133633,5.88741843 C28.1311061,5.4827452 28.157215,4.66034475 28.157215,4.66034475 L28.157215,4.66034475 Z" id="Shape" fill-rule="nonzero"></path>
                <polygon id="Path-15" transform="translate(13.732585, 12.325815) scale(-1, 1) translate(-13.732585, -12.325815) " points="24.4696081 19.0407014 2.99556213 5.61092871 4.62108364 19.0397258"></polygon>
                <path d="M3.24519231,19.847561 L23.2156065,19.847561 L23.2156065,20.5968574 C23.2156065,21.0106824 22.8856445,21.3461538 22.4571286,21.3461538 L4.00367023,21.3461538 C3.58477444,21.3461538 3.24519231,21.0135675 3.24519231,20.5968574 L3.24519231,19.847561 Z" id="Rectangle-4"></path>
            </g>
            <g id="Group" transform="translate(0.000000, 17.000000)">
                <g id="头像1">
                    <mask id="mask-2" fill="white">
                        <use xlink:href="#path-1"></use>
                    </mask>
                    <use id="Mask" fill="#FFFFFF" opacity="0.321161685" xlink:href="#path-1"></use>
                    <mask id="mask-4" fill="white">
                        <use xlink:href="#path-3"></use>
                    </mask>
                    <use id="Mask" fill="#D0AE7A" xlink:href="#path-3"></use>
                    <path d="M30.1912667,29.336662 C34.728861,29.336662 38.4210927,25.676746 38.4208444,21.1763465 C38.4208444,16.6761968 34.728892,13.0159997 30.1912977,13.0159997 C25.6537345,13.0159997 21.9617821,16.6774772 21.9617821,21.1763465 C21.961751,25.6754344 25.6537035,29.336662 30.1912667,29.336662 Z" id="Shape" fill="#FFFFFF" fill-rule="nonzero" mask="url(#mask-4)"></path>
                    <path d="M33.5826472,30.1224644 L27.4163909,30.1224644 C21.6862526,30.1224644 17.025556,34.7406577 17.025556,40.4189332 L17.025556,41.0301059 C17.025556,43.9985608 21.6116526,43.9985608 27.4163909,43.9985608 L33.5826471,43.9985608 C39.1589929,43.9985608 43.974413,43.9985608 43.974413,41.0301059 L43.974413,40.4189332 C43.974351,34.7419381 39.3129096,30.1224644 33.5826472,30.1224644 Z" id="Shape" fill="#FFFFFF" fill-rule="nonzero" mask="url(#mask-4)"></path>
                </g>
            </g>
        </g>
    </g>
</svg>