<?xml version="1.0" encoding="UTF-8"?>
<svg width="30px" height="30px" viewBox="0 0 30 30" version="1.1" xmlns="http://www.w3.org/2000/svg" xmlns:xlink="http://www.w3.org/1999/xlink">
    <!-- Generator: Sketch 46.2 (44496) - http://www.bohemiancoding.com/sketch -->
    <title>shopping</title>
    <desc>Created with Sketch.</desc>
    <defs></defs>
    <g id="Page-2" stroke="none" stroke-width="1" fill="none" fill-rule="evenodd">
        <g id="shopping" fill-rule="nonzero" fill="#FFFFFF">
            <g id="购物车空" transform="translate(0.000000, 1.000000)">
                <path d="M10.0731225,21.9114033 C10.4576285,21.9114033 10.8218972,21.983167 11.1659289,22.1266945 C11.5099605,22.2702219 11.8084585,22.4701352 12.0614229,22.7264342 C12.3143874,22.9827332 12.5167589,23.285166 12.6685375,23.6337327 C12.8203162,23.9822993 12.8962055,24.3513699 12.8962055,24.7409444 C12.8962055,25.1305189 12.8203162,25.4995895 12.6685375,25.8481562 C12.5167589,26.1967228 12.3143874,26.4991557 12.0614229,26.7554547 C11.8084585,27.0117537 11.5099605,27.2167929 11.1659289,27.3705723 C10.8218972,27.5243517 10.4576285,27.6012414 10.0731225,27.6012414 C9.66837945,27.6012414 9.29399209,27.5243517 8.94996047,27.3705723 C8.60592885,27.2167929 8.30743083,27.0117537 8.0544664,26.7554547 C7.80150198,26.4991557 7.59913043,26.1967228 7.44735178,25.8481562 C7.29557312,25.4995895 7.21968379,25.1305189 7.21968379,24.7409444 C7.21968379,24.3513699 7.29557312,23.9822993 7.44735178,23.6337327 C7.59913043,23.285166 7.80150198,22.9827332 8.0544664,22.7264342 C8.30743083,22.4701352 8.60592885,22.2702219 8.94996047,22.1266945 C9.29399209,21.983167 9.66837945,21.9114033 10.0731225,21.9114033 Z M22.7011067,21.9729151 C23.0856126,21.9729151 23.4549407,22.0446788 23.8090909,22.1882062 C24.1632411,22.3317337 24.4667984,22.5316469 24.7197628,22.7879459 C24.9727273,23.044245 25.1750988,23.3466778 25.3268775,23.6952445 C25.4786561,24.0438111 25.5545455,24.4128817 25.5545455,24.8024562 C25.5545455,25.1920307 25.4786561,25.5611013 25.3268775,25.9096679 C25.1750988,26.2582346 24.9727273,26.5606674 24.7197628,26.8169665 C24.4667984,27.0732655 24.1632411,27.2783047 23.8090909,27.4320841 C23.4549407,27.5858635 23.0856126,27.6627532 22.7011067,27.6627532 C22.3166008,27.6627532 21.952332,27.5858635 21.6083004,27.4320841 C21.2642688,27.2783047 20.9657708,27.0732655 20.7128063,26.8169665 C20.4598419,26.5606674 20.2574704,26.2582346 20.1056917,25.9096679 C19.953913,25.5611013 19.8780237,25.1920307 19.8780237,24.8024562 C19.8780237,24.4128817 19.953913,24.0438111 20.1056917,23.6952445 C20.2574704,23.3466778 20.4598419,23.044245 20.7128063,22.7879459 C20.9657708,22.5316469 21.2642688,22.3317337 21.6083004,22.1882062 C21.952332,22.0446788 22.3166008,21.9729151 22.7011067,21.9729151 Z M27.8008696,4.50357417 C28.3675099,4.50357417 28.807668,4.58046387 29.1213439,4.73424328 C29.4350198,4.88802269 29.6576285,5.07768396 29.78917,5.3032271 C29.9207115,5.52877023 29.9814229,5.76969131 29.9713043,6.02599032 C29.9611858,6.28228934 29.9257708,6.50270649 29.8650593,6.68724178 C29.8043478,6.87177707 29.6728063,7.25109962 29.4704348,7.82520941 C29.2680632,8.39931921 29.0505138,9.02981478 28.8177866,9.71669615 C28.5850593,10.4035775 28.352332,11.0853329 28.1196047,11.7619623 C27.8868775,12.4385917 27.6996838,12.9716936 27.5580237,13.3612681 C27.2949407,14.181425 26.966087,14.7504088 26.5714625,15.0682196 C26.1768379,15.3860304 25.686087,15.5449358 25.0992095,15.5449358 L24.0367589,15.5449358 L22.0939921,15.5449358 L19.5441107,15.5449358 L16.6906719,15.5449358 L9.16245059,15.5449358 L9.58743083,18.3129651 L24.9170751,18.3129651 C25.8884585,18.3129651 26.3741502,18.7332955 26.3741502,19.5739563 C26.3741502,19.9840347 26.2780237,20.3428533 26.0857708,20.6504121 C25.8935178,20.957971 25.5140711,21.1014984 24.9474308,21.0809945 L23.4903557,21.0809945 L20.6976285,21.0809945 L17.1763636,21.0809945 L13.6247431,21.0809945 L10.6802372,21.0809945 L9.04102767,21.0809945 C8.63628458,21.0809945 8.29731225,20.9887268 8.02411067,20.8041916 C7.75090909,20.6196563 7.52324111,20.3787352 7.34110672,20.0814283 C7.15897233,19.7841215 7.01225296,19.4611847 6.90094862,19.1126181 C6.78964427,18.7640514 6.70363636,18.4359887 6.6429249,18.1284298 C6.62268775,18.0054063 6.56703557,17.7080994 6.47596838,17.2365093 C6.38490119,16.7649191 6.27359684,16.1754313 6.14205534,15.4680461 C6.01051383,14.7606608 5.86379447,13.9712598 5.70189723,13.0998432 C5.54,12.2284265 5.37810277,11.3518839 5.21620553,10.4702153 C4.8316996,8.39931921 4.39660079,6.09262807 3.91090909,3.55014183 L1.63422925,3.55014183 C1.33067194,3.55014183 1.07770751,3.47325213 0.875335968,3.31947272 C0.672964427,3.16569331 0.506007905,2.98115802 0.374466403,2.76586684 C0.242924901,2.55057567 0.151857708,2.31990656 0.101264822,2.0738595 C0.0506719368,1.82781245 0.0253754941,1.60226931 0.0253754941,1.3972301 C0.0253754941,0.987151677 0.161976285,0.648836976 0.435177866,0.382286 C0.708379447,0.115735024 1.07770751,-0.00728850325 1.54316206,0.013215418 L4.60909091,0.013215418 C5.01383399,0.013215418 5.33762846,0.0747271817 5.58047431,0.197750709 C5.82332016,0.320774237 6.01557312,0.474553646 6.1572332,0.659088937 C6.29889328,0.843624228 6.40007905,1.0332855 6.46079051,1.22807275 C6.52150198,1.42286 6.57209486,1.59201735 6.61256917,1.7355448 C6.65304348,1.89957617 6.69351779,2.13024529 6.73399209,2.42755214 C6.7744664,2.724859 6.81494071,3.02729184 6.85541502,3.33485066 C6.91612648,3.70392124 6.97683794,4.09349575 7.03754941,4.50357417 L27.8008696,4.50357417 L27.8008696,4.50357417 Z M26.6777075,7.24084766 L7.67501976,7.17933589 L8.73747036,12.7461505 L24.6135178,12.7769064 L26.6777075,7.24084766 Z" id="Shape"></path>
            </g>
        </g>
    </g>
</svg>