<?xml version="1.0" encoding="UTF-8"?>
<svg width="60px" height="60px" viewBox="0 0 60 60" version="1.1" xmlns="http://www.w3.org/2000/svg" xmlns:xlink="http://www.w3.org/1999/xlink">
    <!-- Generator: Sketch 46.2 (44496) - http://www.bohemiancoding.com/sketch -->
    <title>默认头像</title>
    <desc>Created with Sketch.</desc>
    <defs>
        <circle id="path-1" cx="30" cy="30" r="30"></circle>
    </defs>
    <g id="Page-2" stroke="none" stroke-width="1" fill="none" fill-rule="evenodd">
        <g id="默认头像">
            <g id="头像1">
                <mask id="mask-2" fill="white">
                    <use xlink:href="#path-1"></use>
                </mask>
                <use id="Mask" fill="#ECECEC" xlink:href="#path-1"></use>
                <g id="默认头像" mask="url(#mask-2)" fill-rule="nonzero">
                    <g transform="translate(13.000000, 13.000000)" id="Shape">
                        <path d="M33,54 L33,49.426211 C33,40.9395419 26.0272639,34 17.5,34 C8.97273617,34 2.00000006,40.9395419 2,49.426211 L2,54 L33,54 Z" fill="#ACA39E"></path>
                        <path d="M17.5,34 C8.97273617,34 2.00000006,41.0139832 2,49.59169 L2,53 C2,44.4222932 8.9727361,37.40831 17.5,37.40831 C26.027264,37.40831 33,44.4222932 33,53 L33,49.59169 C33,41.0215741 26.0272639,34 17.5,34 Z" fill="#898888"></path>
                        <path d="M32,54 L30.9820924,54 L30.9820924,49.5384615 C30.9820924,41.5091575 24.263902,34.981685 16,34.981685 C7.73609803,34.981685 1.01790762,41.5091575 1.01790768,49.5384615 L1.01790768,54 L0,54 L0,49.5384615 C0,40.967033 7.17813386,34 15.99246,34 C24.8067861,34 31.9849199,40.974359 31.9849199,49.5384615 L31.9849199,54 L32,54 Z" fill="#414042"></path>
                        <path d="M17,42 C15.3459822,42 14,40.4799131 14,38.5950055 L14,31.4049946 C14,29.5276873 15.3392857,28 17,28 C18.6540178,28 20,29.5200869 20,31.4049946 L20,38.5950055 C20,40.4723127 18.6540179,42.0000001 17,42 L17,42 Z" fill="#E0D7D3"></path>
                        <path d="M16.3685742,40 L15.6314258,40 C13.6294859,40 12,38.5121457 12,36.6842105 L12,29.3157895 C12,27.4878543 13.6294859,26 15.6314258,26 L16.3685742,26 C18.3705141,26 20,27.4878543 20,29.3157895 L20,36.6912955 C20,38.5121457 18.3705141,40 16.3685742,40 Z M15.6314258,26.9493927 C14.2036857,26.9493927 13.0475267,28.0050607 13.0475267,29.3087045 L13.0475267,36.6842105 C13.0475267,37.9878543 14.2036857,39.0435223 15.6314258,39.0435223 L16.3685742,39.0435223 C17.7963143,39.0435223 18.9524733,37.9878543 18.9524733,36.6842105 L18.9524733,29.3157895 C18.9524733,28.0121457 17.7963143,26.9564777 16.3685742,26.9564777 L15.6314258,26.9564777 L15.6314258,26.9493927 Z" fill="#414042"></path>
                        <path d="M5,22.3157894 C5,23.2481202 4.33035715,23.9999999 3.50000003,24 C2.66964291,24 2.00000006,23.2481203 2,22.3157894 L2,20.6842106 C2,19.7518798 2.66964285,19.0000001 3.50000003,19 C4.33035715,19 5,19.7518797 5,20.6842106 L5,22.3157894 Z" fill="#F2E9E7"></path>
                        <path d="M2.50000004,23 C1.11683851,23 0,22.0162703 0,20.8147684 L0,19.1852316 C0,17.9762203 1.12542955,17 2.50000004,17 C3.88316156,17 5.00000007,17.9837297 5,19.1852316 L5,20.8147684 C5,22.0162703 3.87457045,23 2.50000004,23 Z M2.50000004,18.0062578 C1.76116844,18.0062578 1.15120277,18.5319149 1.15120277,19.1852316 L1.15120277,20.8147684 C1.15120277,21.4605757 1.75257732,21.9937422 2.50000004,21.9937422 C3.24742275,21.9937422 3.84879731,21.4680851 3.84879723,20.8147684 L3.84879723,19.1852316 C3.84020619,18.5319149 3.23883156,18.0062578 2.50000004,18.0062578 Z" fill="#414042"></path>
                        <path d="M32,22.3157894 C32,23.2481202 31.3236607,23.9999999 30.5,24 C29.6696429,24 29,23.2481203 29,22.3157894 L29,20.6842106 C29,19.7518798 29.6696429,19.0000001 30.5,19 C31.3303571,19 32,19.7518797 32,20.6842106 L32,22.3157894 Z" fill="#F2E9E7"></path>
                        <path d="M30.4957118,23 C29.1149228,23 28,22.0162703 28,20.8147684 L28,19.1852316 C28,17.9762203 29.1234991,17 30.4957118,17 C31.8765009,17 33,17.9837297 33,19.1852316 L33,20.8147684 C32.9914237,22.0162703 31.8765009,23 30.4957118,23 Z M30.4957118,18.0062578 C29.7581476,18.0062578 29.1492281,18.5319149 29.1492281,19.1852316 L29.1492281,20.8147684 C29.1492281,21.4605757 29.7495712,21.9937422 30.4957118,21.9937422 C31.2418525,21.9937422 31.8421956,21.4680851 31.8421956,20.8147684 L31.8421956,19.1852316 C31.8421956,18.5319149 31.2332761,18.0062578 30.4957118,18.0062578 Z" fill="#414042"></path>
                        <path d="M29,8 L29,21.3006204 C29,28.3102087 23.1830254,34 16,34 C8.82448034,34 3,28.3175409 3,21.3006204 L3,8 L29,8 Z" fill="#F2E9E7"></path>
                        <path d="M16.99611,32 C9.27841068,32 3,26.2983695 3,19.2896739 L3,6 L31,6 L31,19.2896739 C30.9922201,26.2983696 24.7138094,32.0000001 16.99611,32 Z M4.04251181,6.95380433 L4.04251181,19.2896739 C4.04251181,25.7755435 9.85412614,31.0532609 16.99611,31.0532609 C24.1380939,31.0532608 29.9497083,25.7755435 29.9497082,19.2896739 L29.9497082,6.95380433 L4.04251181,6.95380433 Z" fill="#414042"></path>
                        <path d="M32,0 L32,5.36187611 C32,8.21471605 29.6791371,10.5189329 26.8221253,10.5189329 L6.20610514,10.5189329 C4.77392703,10.5189329 3.61349555,11.6746988 3.61349555,13.1011188 L3.61349555,16.4806368 C3.61349555,16.7659208 3.37847148,17 3.09203581,17 L0.514115261,17 C0.227679652,17 6.1603454e-08,16.7659208 0,16.4806368 L0,6.67857146 C0.815239844,4.25000002 3.61349549,5.16437181 3.61349555,5.16437181 C3.61349555,2.31153187 5.9343585,0.00731501951 8.79137023,0.00731501951 L32,0.00731501951 L32,0 Z" fill="#535151"></path>
                        <path d="M26.3668203,8.53344992 C29.478341,8.53344992 32,5.99125492 32,2.8618277 L32,0 L8.82580644,0 C5.95760364,0 3.62764975,2.34892871 3.62764975,5.24048974 C3.62764975,5.24048974 0.818433183,4.31132487 0,6.77918673 L0,17 L1.1281106,17 C1.43778803,17 1.68847928,16.7472672 1.68847922,16.4350678 L1.68847922,11.3729777 C1.68847922,9.80454746 2.94930874,8.53344992 4.5050691,8.53344992 L26.3668203,8.53344992 Z" fill="#ACA39E"></path>
                        <path d="M3.70207077,19 L1.04475618,19 C0.469383199,19 0,18.5209435 0,17.9337129 L0.0227121046,7.40992277 C0.688933438,5.37779587 2.50590073,5.12281421 3.75506566,5.32370883 C4.07303493,2.3334689 6.55622356,0 9.56936095,0 L34,0 L34,6.18137455 C34,9.47295655 31.3729682,12.1541277 28.1478512,12.1541277 L6.90447562,12.1541277 C5.71587619,12.1541277 4.74682701,13.1431476 4.74682701,14.3562424 L4.74682701,17.9259862 C4.74682701,18.5209435 4.27744381,19 3.70207077,19 Z M1.02204407,7.66490443 L1.02204407,17.9337129 L3.70207077,17.9568931 L3.72478287,14.3639691 C3.72478287,12.5713705 5.1480739,11.1187475 6.90447562,11.1187475 L28.1478512,11.1187475 C30.8127366,11.1187475 32.9779559,8.90890606 32.9779559,6.18910132 L32.9779559,1.0508337 L9.57693163,1.0508337 C6.9120463,1.0508337 4.74682695,3.26067512 4.74682701,5.98047993 L4.74682701,6.6990647 L4.08060568,6.47498985 C3.8383434,6.39772264 1.70340683,5.75640507 1.02204407,7.66490443 Z" fill="#414042"></path>
                    </g>
                </g>
            </g>
        </g>
    </g>
</svg>